<?xml version="1.0" encoding="utf-8"?>
<!-- Generator: Adobe Illustrator 17.1.0, SVG Export Plug-In . SVG Version: 6.00 Build 0)  -->
<!DOCTYPE svg PUBLIC "-//W3C//DTD SVG 1.1//EN" "http://www.w3.org/Graphics/SVG/1.1/DTD/svg11.dtd">
<svg version="1.1" id="Layer_1" xmlns="http://www.w3.org/2000/svg" xmlns:xlink="http://www.w3.org/1999/xlink" x="0px" y="0px"
	 viewBox="0 0 703.6 105.1" enable-background="new 0 0 703.6 105.1" xml:space="preserve">
<g>
	<path d="M62,70.5c0.3,2.5,0.8,6.3,3.7,7.2c2,0.6,3.8,0.6,4.4,0.6c0.3,0,0.5,0.1,0.5,0.3c0,0.4-0.6,0.6-1.4,0.6
		c-1.5,0-8.9-0.2-11.4-0.4c-1.6-0.1-1.9-0.3-1.9-0.7c0-0.3,0.1-0.4,0.5-0.5c0.3-0.1,0.4-1.2,0.3-2.5L53.4,40h-0.2L36.4,75.6
		c-1.4,3-1.6,3.6-2.3,3.6c-0.5,0-0.8-0.7-2.1-3.1c-1.8-3.4-7.7-15.2-8-15.9c-0.6-1.2-8.3-17.6-9-19.5h-0.3L12,72.4
		C12,73.5,12,74.7,12,75.9c0,1,0.8,1.9,1.8,2.1c1.2,0.3,2.2,0.3,2.6,0.3c0.3,0,0.5,0.1,0.5,0.3c0,0.5-0.4,0.6-1.2,0.6
		c-2.5,0-5.8-0.2-6.4-0.2c-0.6,0-3.9,0.2-5.7,0.2c-0.7,0-1.2-0.1-1.2-0.6c0-0.2,0.3-0.3,0.7-0.3c0.5,0,1,0,2.1-0.2
		c2.3-0.4,2.5-3.1,2.7-5.7l4.9-44.6c0.1-0.8,0.3-1.2,0.8-1.2c0.4,0,0.7,0.3,1,1l20.9,43l20.1-43c0.3-0.6,0.5-1.1,1-1.1
		c0.5,0,0.7,0.5,0.8,1.8L62,70.5z"/>
	<path d="M104.6,29.3c0.8-2.3,1.1-2.7,1.5-2.7c0.4,0,0.7,0.3,1.5,2.5c1,2.6,11.8,30.9,15.9,41.2c2.5,6.1,4.4,7.2,5.9,7.6
		c1,0.3,2.1,0.4,2.7,0.4c0.4,0,0.7,0.1,0.7,0.4c0,0.4-0.6,0.5-1.4,0.5c-1,0-6,0-10.7-0.1c-1.3-0.1-2.1-0.1-2.1-0.5
		c0-0.3,0.2-0.4,0.5-0.5c0.4-0.1,0.8-0.8,0.4-1.8l-6.4-16.8c-0.1-0.3-0.3-0.4-0.6-0.4H97.9c-0.3,0-0.5,0.2-0.7,0.5l-4.1,12.1
		c-0.6,1.7-1,3.4-1,4.6c0,1.4,1.4,2,2.6,2h0.7c0.5,0,0.7,0.1,0.7,0.4c0,0.4-0.4,0.5-1,0.5c-1.6,0-4.6-0.2-5.3-0.2
		c-0.8,0-4.5,0.2-7.7,0.2c-0.9,0-1.3-0.1-1.3-0.5c0-0.3,0.3-0.4,0.6-0.4c0.5,0,1.4-0.1,2-0.1c3.1-0.4,4.5-3,5.7-6.4L104.6,29.3z
		 M111.7,56.7c0.3,0,0.3-0.2,0.3-0.5l-6.5-18.5c-0.3-1-0.7-1-1,0l-6,18.5c-0.1,0.3,0,0.5,0.2,0.5H111.7z"/>
	<path d="M153,47.5c0-10.7,0-12.6-0.1-14.8c-0.1-2.3-0.7-3.4-2.9-3.9c-0.5-0.1-1.7-0.2-2.3-0.2c-0.3,0-0.5-0.1-0.5-0.4
		c0-0.4,0.3-0.5,1.1-0.5c3.1,0,7.4,0.2,7.7,0.2c0.8,0,6-0.2,8.1-0.2c4.3,0,8.9,0.4,12.5,3c1.7,1.2,4.7,4.6,4.7,9.3
		c0,5.1-2.1,10.1-8.3,15.8c5.6,7.2,10.3,13.3,14.2,17.5c3.7,3.9,6.6,4.7,8.3,4.9c1.3,0.2,2.3,0.2,2.7,0.2c0.3,0,0.6,0.2,0.6,0.4
		c0,0.4-0.4,0.5-1.6,0.5h-4.9c-3.8,0-5.5-0.3-7.3-1.3c-2.9-1.6-5.3-4.9-9.2-10.1c-2.9-3.8-6.1-8.3-7.5-10.1
		c-0.3-0.3-0.5-0.4-0.9-0.4l-8.4-0.1c-0.3,0-0.5,0.2-0.5,0.5v1.6c0,6.6,0,12,0.3,14.8c0.2,2,0.6,3.5,2.7,3.8c1,0.1,2.5,0.3,3.1,0.3
		c0.4,0,0.5,0.2,0.5,0.4c0,0.3-0.3,0.5-1.1,0.5c-3.8,0-8.1-0.2-8.4-0.2c-0.1,0-4.4,0.2-6.4,0.2c-0.8,0-1.1-0.1-1.1-0.5
		c0-0.2,0.1-0.4,0.5-0.4c0.6,0,1.4-0.1,2.1-0.3c1.4-0.3,1.7-1.8,2-3.8c0.3-2.9,0.3-8.3,0.3-14.8V47.5z M158.5,53.4
		c0,0.3,0.1,0.6,0.5,0.8c1,0.6,4.2,1.1,7.2,1.1c1.6,0,3.6-0.2,5.1-1.3c2.4-1.6,4.2-5.3,4.2-10.5c0-8.6-4.5-13.7-11.8-13.7
		c-2.1,0-3.9,0.2-4.6,0.4c-0.3,0.1-0.5,0.4-0.5,0.8V53.4z"/>
	<path d="M216.5,72.9c-6.6-6-8.3-13.7-8.3-20.2c0-4.6,1.6-12.6,7.7-18.7c4.1-4.1,10.3-7.3,20.9-7.3c2.7,0,6.6,0.2,9.9,0.8
		c2.6,0.5,4.8,0.9,7,1c0.8,0.1,0.9,0.3,0.9,0.8c0,0.5-0.2,1.4-0.3,3.8c-0.1,2.3-0.1,6-0.2,7c-0.1,1-0.2,1.4-0.6,1.4
		c-0.5,0-0.5-0.5-0.5-1.4c0-2.7-1.1-5.5-2.9-7c-2.4-2.1-7.7-3.9-13.7-3.9c-9.1,0-13.3,2.7-15.7,5c-5,4.8-6.2,10.9-6.2,17.9
		c0,13.1,10.1,25,24.7,25c5.1,0,9.2-0.6,11.9-3.4c1.4-1.5,2.3-4.5,2.5-5.7c0.1-0.8,0.3-1,0.7-1c0.3,0,0.5,0.5,0.5,1
		c0,0.5-0.8,6.4-1.5,8.8c-0.4,1.3-0.5,1.4-1.8,2c-2.7,1.1-7.9,1.6-12.3,1.6C228.8,80.3,221.9,77.8,216.5,72.9z"/>
	<path d="M364.3,29.3c0.8-2.3,1.1-2.7,1.5-2.7c0.4,0,0.7,0.3,1.5,2.5c1,2.6,11.8,30.9,15.9,41.2c2.5,6.1,4.4,7.2,5.9,7.6
		c1,0.3,2.1,0.4,2.7,0.4c0.4,0,0.7,0.1,0.7,0.4c0,0.4-0.6,0.5-1.4,0.5c-1,0-6,0-10.7-0.1c-1.3-0.1-2.1-0.1-2.1-0.5
		c0-0.3,0.2-0.4,0.5-0.5c0.4-0.1,0.8-0.8,0.4-1.8l-6.4-16.8c-0.1-0.3-0.3-0.4-0.6-0.4h-14.7c-0.3,0-0.5,0.2-0.7,0.5l-4.1,12.1
		c-0.6,1.7-1,3.4-1,4.6c0,1.4,1.4,2,2.6,2h0.7c0.5,0,0.7,0.1,0.7,0.4c0,0.4-0.4,0.5-1,0.5c-1.6,0-4.6-0.2-5.3-0.2
		c-0.8,0-4.5,0.2-7.7,0.2c-0.9,0-1.3-0.1-1.3-0.5c0-0.3,0.3-0.4,0.6-0.4c0.5,0,1.4-0.1,2-0.1c3.1-0.4,4.5-3,5.7-6.4L364.3,29.3z
		 M371.4,56.7c0.3,0,0.3-0.2,0.3-0.5l-6.5-18.5c-0.3-1-0.7-1-1,0l-6,18.5c-0.1,0.3,0,0.5,0.2,0.5H371.4z"/>
	<path d="M414.5,70c0.1,5.6,0.8,7.4,2.7,7.9c1.3,0.3,2.8,0.4,3.4,0.4c0.3,0,0.5,0.1,0.5,0.4c0,0.4-0.4,0.5-1.2,0.5
		c-3.9,0-6.6-0.2-7.3-0.2c-0.6,0-3.5,0.2-6.6,0.2c-0.7,0-1.1-0.1-1.1-0.5c0-0.3,0.2-0.4,0.5-0.4c0.5,0,1.8-0.1,2.8-0.4
		c1.7-0.5,2.1-2.5,2.1-8.7l0.1-39.2c0-2.7,0.2-3.4,0.8-3.4c0.5,0,1.7,1.5,2.4,2.2c1,1.2,11.2,12.2,21.8,23.5
		c6.8,7.3,14.2,15.6,16.4,17.9l-0.8-34.8c-0.1-4.4-0.5-6-2.7-6.5c-1.2-0.3-2.8-0.3-3.4-0.3c-0.5,0-0.5-0.2-0.5-0.5
		c0-0.4,0.5-0.5,1.4-0.5c3.1,0,6.4,0.2,7.1,0.2c0.8,0,3-0.2,5.8-0.2c0.8,0,1.2,0.1,1.2,0.5c0,0.3-0.3,0.5-0.8,0.5
		c-0.3,0-0.8,0-1.6,0.2c-2.3,0.5-2.5,2-2.5,6.1L455,74.9c0,4.5-0.1,4.9-0.6,4.9c-0.5,0-1.4-0.8-5-4.4c-0.8-0.7-10.6-10.7-17.9-18.5
		c-7.9-8.6-15.7-17.2-17.9-19.6L414.5,70z"/>
	<path d="M519.3,61.9c0-5.5-0.3-6.3-3.1-7c-0.5-0.1-1.7-0.2-2.3-0.2c-0.3,0-0.5-0.1-0.5-0.4c0-0.4,0.3-0.5,1.1-0.5
		c3.1,0,7.4,0.2,7.7,0.2c0.3,0,4.7-0.2,6.7-0.2c0.8,0,1.1,0.1,1.1,0.5c0,0.3-0.3,0.4-0.5,0.4c-0.5,0-0.9,0.1-1.7,0.2
		c-1.8,0.3-2.4,1.5-2.5,3.9c-0.1,2.2-0.1,4.2-0.1,7.1v7.7c0,3.1-0.1,3.2-0.9,3.7c-4.4,2.3-10.5,3.1-14.5,3.1
		c-5.2,0-14.9-0.7-22.5-7.3C483,69.3,479,62,479,53.5c0-10.9,5.3-18.7,11.4-22.5c6.2-3.8,12.9-4.3,18.2-4.3c4.3,0,9.2,0.9,10.5,1.2
		c1.4,0.3,3.8,0.6,5.5,0.7c0.7,0.1,0.8,0.3,0.8,0.6c0,1-0.5,2.9-0.5,9.7c0,1.1-0.1,1.4-0.6,1.4c-0.3,0-0.4-0.4-0.5-1
		c-0.1-1-0.4-2.9-1.4-4.5c-1.7-2.6-7.3-5.5-16.1-5.5c-4.3,0-9.4,0.4-14.6,4.5c-4,3.1-6.8,9.4-6.8,17.4c0,9.6,4.9,16.6,7.3,18.9
		c5.4,5.3,11.6,7.3,17.9,7.3c2.5,0,6-0.4,7.8-1.4c0.9-0.5,1.4-1.2,1.4-2.4V61.9z"/>
	<path d="M556.2,47.5c0-10.7,0-12.6-0.1-14.8c-0.1-2.3-0.7-3.4-2.9-3.9c-0.5-0.1-1.7-0.2-2.3-0.2c-0.3,0-0.5-0.1-0.5-0.4
		c0-0.4,0.3-0.5,1.1-0.5c1.6,0,3.4,0,4.9,0.1l2.8,0.1c0.5,0,14.1,0,15.7-0.1c1.3-0.1,2.4-0.2,2.9-0.3c0.3-0.1,0.6-0.3,1-0.3
		c0.2,0,0.3,0.3,0.3,0.6c0,0.5-0.3,1.3-0.5,3.2c-0.1,0.7-0.2,3.7-0.3,4.5c-0.1,0.3-0.2,0.8-0.5,0.8c-0.4,0-0.5-0.3-0.5-0.9
		c0-0.5-0.1-1.6-0.4-2.5c-0.5-1.1-1.2-1.9-4.9-2.3c-1.2-0.1-8.6-0.2-9.4-0.2c-0.3,0-0.4,0.2-0.4,0.7v18.9c0,0.5,0.1,0.7,0.4,0.7
		c0.9,0,9.3,0,10.9-0.1c1.6-0.1,2.6-0.3,3.2-1c0.5-0.5,0.8-0.9,1-0.9c0.2,0,0.3,0.1,0.3,0.5c0,0.4-0.3,1.6-0.5,3.8
		c-0.1,1.4-0.3,3.9-0.3,4.4c0,0.5,0,1.3-0.5,1.3c-0.3,0-0.5-0.3-0.5-0.6c0-0.7,0-1.4-0.3-2.3c-0.3-1-0.9-2.1-3.6-2.4
		c-1.8-0.2-8.6-0.3-9.8-0.3c-0.3,0-0.5,0.2-0.5,0.5v6c0,2.3-0.1,10.3,0,11.7c0.2,4.7,1.2,5.6,7.9,5.6c1.8,0,4.8,0,6.6-0.8
		c1.8-0.8,2.6-2.1,3.1-4.9c0.1-0.8,0.3-1,0.6-1c0.4,0,0.4,0.5,0.4,1c0,0.5-0.5,5.2-0.9,6.6c-0.5,1.8-1,1.8-3.7,1.8
		c-5.1,0-8.9-0.1-11.6-0.2c-2.7-0.1-4.3-0.2-5.3-0.2c-0.1,0-1.3,0-2.7,0.1c-1.4,0-2.9,0.1-4,0.1c-0.8,0-1.1-0.1-1.1-0.5
		c0-0.2,0.1-0.4,0.5-0.4c0.6,0,1.4-0.1,2.1-0.3c1.4-0.3,1.7-1.8,2-3.8c0.3-2.9,0.3-8.3,0.3-14.8V47.5z"/>
	<path d="M614.1,59.6c0,10.1,0.3,14.4,1.5,15.7c1.1,1.1,2.9,1.6,8.2,1.6c3.6,0,6.6-0.1,8.3-2.1c0.9-1.1,1.6-2.8,1.8-4.1
		c0.1-0.5,0.2-0.9,0.6-0.9c0.3,0,0.4,0.3,0.4,1c0,0.8-0.5,4.9-1,6.8c-0.5,1.6-0.7,1.8-4.3,1.8c-4.9,0-8.5-0.1-11.4-0.2
		c-2.9-0.1-5-0.2-7-0.2c-0.3,0-1.4,0.1-2.8,0.1c-1.4,0.1-2.9,0.1-3.9,0.1c-0.8,0-1.1-0.1-1.1-0.5c0-0.2,0.1-0.4,0.5-0.4
		c0.6,0,1.4-0.1,2.1-0.3c1.4-0.3,1.7-1.8,2-3.8c0.3-2.9,0.3-8.3,0.3-14.8v-12c0-10.7,0-12.6-0.1-14.8c-0.1-2.3-0.7-3.4-2.9-3.9
		c-0.5-0.1-1.7-0.2-2.3-0.2c-0.3,0-0.5-0.1-0.5-0.4c0-0.4,0.3-0.5,1.1-0.5c3.1,0,7.4,0.2,7.7,0.2c0.3,0,5.3-0.2,7.4-0.2
		c0.8,0,1.1,0.1,1.1,0.5c0,0.3-0.3,0.4-0.5,0.4c-0.5,0-1.4,0.1-2.3,0.2c-2,0.3-2.5,1.5-2.7,3.9c-0.1,2.2-0.1,4.1-0.1,14.8V59.6z"/>
	<path d="M676.7,26.7c15.4,0,26.9,9.7,26.9,25.7c0,15.3-10.8,28-27.3,28c-18.7,0-26.5-14.6-26.5-26.9
		C649.8,42.3,657.9,26.7,676.7,26.7z M678.2,77.7c6.2,0,18.9-3.6,18.9-23.5c0-16.4-10-25.2-20.8-25.2c-11.4,0-20,7.5-20,22.5
		C656.3,67.4,665.9,77.7,678.2,77.7z"/>
</g>
<g>
	<path fill="#FFFFFF" d="M59.6,68.7c0.3,2.5,0.8,6.3,3.7,7.3c2,0.6,3.8,0.6,4.4,0.6c0.3,0,0.5,0.1,0.5,0.3c0,0.4-0.6,0.6-1.4,0.6
		c-1.5,0-8.9-0.2-11.4-0.4c-1.6-0.1-1.9-0.3-1.9-0.7c0-0.3,0.1-0.4,0.5-0.5c0.3-0.1,0.4-1.2,0.3-2.5L51,38.1h-0.2L34.1,73.7
		c-1.4,3-1.6,3.6-2.3,3.6c-0.5,0-0.8-0.7-2.1-3.1c-1.8-3.4-7.7-15.2-8-15.9c-0.6-1.2-8.3-17.6-9-19.5h-0.3L9.6,70.6
		c-0.1,1.1-0.1,2.3-0.1,3.5c0,1,0.8,1.9,1.8,2.1c1.2,0.3,2.2,0.3,2.6,0.3c0.3,0,0.5,0.1,0.5,0.3c0,0.5-0.4,0.6-1.2,0.6
		c-2.5,0-5.8-0.2-6.4-0.2c-0.6,0-3.9,0.2-5.7,0.2c-0.7,0-1.2-0.1-1.2-0.6c0-0.2,0.3-0.3,0.7-0.3c0.5,0,1,0,2.1-0.2
		c2.3-0.4,2.5-3.1,2.7-5.7L10.4,26c0.1-0.8,0.3-1.2,0.8-1.2c0.4,0,0.7,0.3,1,1l20.9,43l20.1-43c0.3-0.6,0.5-1.1,1-1.1
		c0.5,0,0.7,0.5,0.8,1.8L59.6,68.7z"/>
	<path fill="#FFFFFF" d="M102.2,27.5c0.8-2.3,1.1-2.7,1.5-2.7c0.4,0,0.7,0.3,1.5,2.5c1,2.6,11.8,30.9,15.9,41.2
		c2.5,6.1,4.4,7.2,5.9,7.6c1,0.3,2.1,0.4,2.7,0.4c0.4,0,0.7,0.1,0.7,0.4c0,0.4-0.6,0.5-1.4,0.5c-1,0-6,0-10.7-0.1
		c-1.3-0.1-2.1-0.1-2.1-0.5c0-0.3,0.2-0.4,0.5-0.5c0.4-0.1,0.8-0.8,0.4-1.8l-6.4-16.8c-0.1-0.3-0.3-0.4-0.6-0.4H95.5
		c-0.3,0-0.5,0.2-0.7,0.5L90.7,70c-0.6,1.7-1,3.4-1,4.6c0,1.4,1.4,2,2.6,2H93c0.5,0,0.7,0.1,0.7,0.4c0,0.4-0.4,0.5-1,0.5
		c-1.6,0-4.6-0.2-5.3-0.2c-0.8,0-4.5,0.2-7.7,0.2c-0.9,0-1.3-0.1-1.3-0.5c0-0.3,0.3-0.4,0.6-0.4c0.5,0,1.4-0.1,2-0.1
		c3.1-0.4,4.5-3,5.7-6.4L102.2,27.5z M109.3,54.8c0.3,0,0.3-0.2,0.3-0.5l-6.5-18.5c-0.3-1-0.7-1-1,0l-6,18.5c-0.1,0.3,0,0.5,0.2,0.5
		H109.3z"/>
	<path fill="#FFFFFF" d="M150.6,45.6c0-10.7,0-12.6-0.1-14.8c-0.1-2.3-0.7-3.4-2.9-3.9c-0.5-0.1-1.7-0.2-2.3-0.2
		c-0.3,0-0.5-0.1-0.5-0.4c0-0.4,0.3-0.5,1.1-0.5c3.1,0,7.4,0.2,7.7,0.2c0.8,0,6-0.2,8.1-0.2c4.3,0,8.9,0.4,12.5,3
		c1.7,1.2,4.7,4.6,4.7,9.3c0,5.1-2.1,10.1-8.3,15.8c5.6,7.2,10.3,13.3,14.2,17.5c3.7,3.9,6.6,4.7,8.3,4.9c1.3,0.2,2.3,0.2,2.7,0.2
		c0.3,0,0.6,0.2,0.6,0.4c0,0.4-0.4,0.5-1.6,0.5h-4.9c-3.8,0-5.5-0.3-7.3-1.3c-2.9-1.6-5.3-4.9-9.2-10.1c-2.9-3.8-6.1-8.3-7.5-10.1
		c-0.3-0.3-0.5-0.4-0.9-0.4l-8.4-0.1c-0.3,0-0.5,0.2-0.5,0.5v1.6c0,6.6,0,12,0.3,14.8c0.2,2,0.6,3.5,2.7,3.8c1,0.1,2.5,0.3,3.1,0.3
		c0.4,0,0.5,0.2,0.5,0.4c0,0.3-0.3,0.5-1.1,0.5c-3.8,0-8.1-0.2-8.4-0.2c-0.1,0-4.4,0.2-6.4,0.2c-0.8,0-1.1-0.1-1.1-0.5
		c0-0.2,0.1-0.4,0.5-0.4c0.6,0,1.4-0.1,2.1-0.3c1.4-0.3,1.7-1.8,2-3.8c0.3-2.9,0.3-8.3,0.3-14.8V45.6z M156.1,51.6
		c0,0.3,0.1,0.6,0.5,0.8c1,0.6,4.2,1.1,7.2,1.1c1.6,0,3.6-0.2,5.1-1.3c2.4-1.6,4.2-5.3,4.2-10.5c0-8.6-4.5-13.7-11.8-13.7
		c-2.1,0-3.9,0.2-4.6,0.4c-0.3,0.1-0.5,0.4-0.5,0.8V51.6z"/>
	<path fill="#FFFFFF" d="M214.1,71c-6.6-6-8.3-13.7-8.3-20.2c0-4.6,1.6-12.6,7.7-18.7c4.1-4.1,10.3-7.3,20.9-7.3
		c2.7,0,6.6,0.2,9.9,0.8c2.6,0.5,4.8,0.9,7,1c0.8,0.1,0.9,0.3,0.9,0.8c0,0.5-0.2,1.4-0.3,3.8c-0.1,2.3-0.1,6-0.2,7
		c-0.1,1-0.2,1.4-0.6,1.4c-0.5,0-0.5-0.5-0.5-1.4c0-2.7-1.1-5.5-2.9-7c-2.4-2.1-7.7-3.9-13.7-3.9c-9.1,0-13.3,2.7-15.7,5
		c-5,4.8-6.2,10.9-6.2,17.9c0,13.1,10.1,25,24.7,25c5.1,0,9.2-0.6,11.9-3.4c1.4-1.5,2.3-4.5,2.5-5.7c0.1-0.8,0.3-1,0.7-1
		c0.3,0,0.5,0.5,0.5,1c0,0.5-0.8,6.4-1.5,8.8c-0.4,1.3-0.5,1.4-1.8,2c-2.7,1.1-7.9,1.6-12.3,1.6C226.4,78.4,219.5,75.9,214.1,71z"/>
	<path fill="#FFFFFF" d="M361.9,27.5c0.8-2.3,1.1-2.7,1.5-2.7c0.4,0,0.7,0.3,1.5,2.5c1,2.6,11.8,30.9,15.9,41.2
		c2.5,6.1,4.4,7.2,5.9,7.6c1,0.3,2.1,0.4,2.7,0.4c0.4,0,0.7,0.1,0.7,0.4c0,0.4-0.6,0.5-1.4,0.5c-1,0-6,0-10.7-0.1
		c-1.3-0.1-2.1-0.1-2.1-0.5c0-0.3,0.2-0.4,0.5-0.5c0.4-0.1,0.8-0.8,0.4-1.8l-6.4-16.8c-0.1-0.3-0.3-0.4-0.6-0.4h-14.7
		c-0.3,0-0.5,0.2-0.7,0.5L350.4,70c-0.6,1.7-1,3.4-1,4.6c0,1.4,1.4,2,2.6,2h0.7c0.5,0,0.7,0.1,0.7,0.4c0,0.4-0.4,0.5-1,0.5
		c-1.6,0-4.6-0.2-5.3-0.2c-0.8,0-4.5,0.2-7.7,0.2c-0.9,0-1.3-0.1-1.3-0.5c0-0.3,0.3-0.4,0.6-0.4c0.5,0,1.4-0.1,2-0.1
		c3.1-0.4,4.5-3,5.7-6.4L361.9,27.5z M369,54.8c0.3,0,0.3-0.2,0.3-0.5l-6.5-18.5c-0.3-1-0.7-1-1,0l-6,18.5c-0.1,0.3,0,0.5,0.2,0.5
		H369z"/>
	<path fill="#FFFFFF" d="M412.2,68.2c0.1,5.6,0.8,7.4,2.7,7.9c1.3,0.3,2.8,0.4,3.4,0.4c0.3,0,0.5,0.1,0.5,0.4c0,0.4-0.4,0.5-1.2,0.5
		c-3.9,0-6.6-0.2-7.3-0.2c-0.6,0-3.5,0.2-6.6,0.2c-0.7,0-1.1-0.1-1.1-0.5c0-0.3,0.2-0.4,0.5-0.4c0.5,0,1.8-0.1,2.8-0.4
		c1.7-0.5,2.1-2.5,2.1-8.7l0.1-39.2c0-2.7,0.2-3.4,0.8-3.4c0.5,0,1.7,1.5,2.4,2.2c1,1.2,11.2,12.2,21.8,23.5
		c6.8,7.3,14.2,15.6,16.4,17.9l-0.8-34.7c-0.1-4.4-0.5-6-2.7-6.5c-1.2-0.3-2.8-0.3-3.4-0.3c-0.5,0-0.5-0.2-0.5-0.5
		c0-0.4,0.5-0.5,1.4-0.5c3.1,0,6.4,0.2,7.1,0.2c0.8,0,3-0.2,5.8-0.2c0.8,0,1.2,0.1,1.2,0.5c0,0.3-0.3,0.5-0.8,0.5
		c-0.3,0-0.8,0-1.6,0.2c-2.3,0.5-2.5,2-2.5,6.1l-0.1,40.1c0,4.5-0.1,4.9-0.6,4.9c-0.5,0-1.4-0.8-5-4.4c-0.8-0.7-10.6-10.7-17.9-18.5
		c-7.9-8.6-15.7-17.2-17.9-19.6L412.2,68.2z"/>
	<path fill="#FFFFFF" d="M517,60c0-5.5-0.3-6.3-3.1-7c-0.5-0.1-1.7-0.2-2.3-0.2c-0.3,0-0.5-0.1-0.5-0.4c0-0.4,0.3-0.5,1.1-0.5
		c3.1,0,7.4,0.2,7.7,0.2c0.3,0,4.7-0.2,6.7-0.2c0.8,0,1.1,0.1,1.1,0.5c0,0.3-0.3,0.4-0.5,0.4c-0.5,0-0.9,0.1-1.7,0.2
		c-1.8,0.3-2.4,1.5-2.5,3.9c-0.1,2.2-0.1,4.2-0.1,7.1v7.7c0,3.1-0.1,3.2-0.9,3.7c-4.4,2.3-10.5,3.1-14.5,3.1
		c-5.2,0-14.9-0.7-22.5-7.3c-4.2-3.6-8.1-10.9-8.1-19.5c0-10.9,5.3-18.7,11.4-22.5c6.2-3.8,12.9-4.3,18.2-4.3
		c4.3,0,9.2,0.9,10.5,1.2c1.4,0.3,3.8,0.6,5.5,0.7c0.7,0.1,0.8,0.3,0.8,0.6c0,1-0.5,2.9-0.5,9.7c0,1.1-0.1,1.4-0.6,1.4
		c-0.3,0-0.4-0.4-0.5-1c-0.1-1-0.4-2.9-1.4-4.5c-1.7-2.6-7.3-5.5-16.1-5.5c-4.3,0-9.4,0.4-14.6,4.5c-4,3.1-6.8,9.4-6.8,17.4
		c0,9.6,4.9,16.6,7.3,18.9c5.4,5.3,11.6,7.3,17.9,7.3c2.5,0,6-0.4,7.8-1.4c0.9-0.5,1.4-1.2,1.4-2.4V60z"/>
	<path fill="#FFFFFF" d="M553.8,45.6c0-10.7,0-12.6-0.1-14.8c-0.1-2.3-0.7-3.4-2.9-3.9c-0.5-0.1-1.7-0.2-2.3-0.2
		c-0.3,0-0.5-0.1-0.5-0.4c0-0.4,0.3-0.5,1.1-0.5c1.6,0,3.4,0,4.9,0.1l2.8,0.1c0.5,0,14.1,0,15.7-0.1c1.3-0.1,2.4-0.2,2.9-0.3
		c0.3-0.1,0.6-0.3,1-0.3c0.2,0,0.3,0.3,0.3,0.6c0,0.5-0.3,1.3-0.5,3.2c-0.1,0.7-0.2,3.7-0.3,4.5c-0.1,0.3-0.2,0.8-0.5,0.8
		c-0.4,0-0.5-0.3-0.5-0.9c0-0.5-0.1-1.6-0.4-2.5c-0.5-1.1-1.2-1.9-4.9-2.3c-1.2-0.1-8.6-0.2-9.4-0.2c-0.3,0-0.4,0.2-0.4,0.7V48
		c0,0.5,0.1,0.7,0.4,0.7c0.9,0,9.3,0,10.9-0.1c1.6-0.1,2.6-0.3,3.2-1c0.5-0.5,0.8-0.9,1-0.9c0.2,0,0.3,0.1,0.3,0.5
		c0,0.4-0.3,1.6-0.5,3.8c-0.1,1.4-0.3,3.9-0.3,4.4c0,0.5,0,1.3-0.5,1.3c-0.3,0-0.5-0.3-0.5-0.6c0-0.7,0-1.4-0.3-2.3
		c-0.3-1-0.9-2.1-3.6-2.4c-1.8-0.2-8.6-0.3-9.8-0.3c-0.3,0-0.5,0.2-0.5,0.5v6c0,2.3-0.1,10.3,0,11.7c0.2,4.7,1.2,5.6,7.9,5.6
		c1.8,0,4.8,0,6.6-0.8c1.8-0.8,2.6-2.1,3.1-4.9c0.1-0.8,0.3-1,0.6-1c0.4,0,0.4,0.5,0.4,1c0,0.5-0.5,5.2-0.9,6.6
		c-0.5,1.8-1,1.8-3.7,1.8c-5.1,0-8.9-0.1-11.6-0.2c-2.7-0.1-4.3-0.2-5.3-0.2c-0.1,0-1.3,0-2.7,0.1c-1.4,0-2.9,0.1-4,0.1
		c-0.8,0-1.1-0.1-1.1-0.5c0-0.2,0.1-0.4,0.5-0.4c0.6,0,1.4-0.1,2.1-0.3c1.4-0.3,1.7-1.8,2-3.8c0.3-2.9,0.3-8.3,0.3-14.8V45.6z"/>
	<path fill="#FFFFFF" d="M611.7,57.8c0,10.1,0.3,14.4,1.5,15.7c1.1,1.1,2.9,1.6,8.2,1.6c3.6,0,6.6-0.1,8.3-2.1
		c0.9-1.1,1.6-2.8,1.8-4.1c0.1-0.5,0.2-0.9,0.6-0.9c0.3,0,0.4,0.3,0.4,1c0,0.8-0.5,4.9-1,6.8c-0.5,1.6-0.7,1.8-4.3,1.8
		c-4.9,0-8.5-0.1-11.4-0.2c-2.9-0.1-5-0.2-7-0.2c-0.3,0-1.4,0.1-2.8,0.1c-1.4,0.1-2.9,0.1-3.9,0.1c-0.8,0-1.1-0.1-1.1-0.5
		c0-0.2,0.1-0.4,0.5-0.4c0.6,0,1.4-0.1,2.1-0.3c1.4-0.3,1.7-1.8,2-3.8c0.3-2.9,0.3-8.3,0.3-14.8v-12c0-10.7,0-12.6-0.1-14.8
		c-0.1-2.3-0.7-3.4-2.9-3.9c-0.5-0.1-1.7-0.2-2.3-0.2c-0.3,0-0.5-0.1-0.5-0.4c0-0.4,0.3-0.5,1.1-0.5c3.1,0,7.4,0.2,7.7,0.2
		c0.3,0,5.3-0.2,7.4-0.2c0.8,0,1.1,0.1,1.1,0.5c0,0.3-0.3,0.4-0.5,0.4c-0.5,0-1.4,0.1-2.3,0.2c-2,0.3-2.5,1.5-2.7,3.9
		c-0.1,2.2-0.1,4.1-0.1,14.8V57.8z"/>
	<path fill="#FFFFFF" d="M674.4,24.8c15.4,0,26.9,9.7,26.9,25.7c0,15.3-10.8,28-27.3,28c-18.7,0-26.5-14.6-26.5-26.9
		C647.4,40.5,655.5,24.8,674.4,24.8z M675.8,75.8c6.2,0,18.9-3.6,18.9-23.5c0-16.4-10-25.2-20.8-25.2c-11.4,0-20,7.5-20,22.5
		C653.9,65.6,663.5,75.8,675.8,75.8z"/>
</g>
<path d="M339.4,33.3c0.5-0.5,4.7-2.9,6.8-3.3c2.1-0.3,9.4-4.3,10.2-5.2c0.9-0.9,3.1-4,4.5-2.6c5.7,5.8-7.8,7.2-9.8,8.1
	c-2.1,0.9-3,2.6-3,2.6s3.6,3.8,2.8,7.4c-0.9,3.6-2.9,4.3-4.3,6.1c-1.4,1.7-2.6,6.4-7.6,6.9c-5,0.5-4.9-0.7-6.4-1.4
	c-1.6-0.7-2.4,0.3-3.3,1.2c-2.1,12-12.6,22-20.8,26.2c0,0,0-10.9,1.6-15.2c4-14.4,12-17.3,12.8-19.7c0.9-2.4-1.4-3.8-1.4-3.8
	l-6.9,3.5c0,0-2.9,2.9-3.8,5c-0.9,2.1-2,8.4-6.2,7.8c-4.2-0.5-2.8-3.2-2.8-3.2s-0.7,1.9-3.8,2.6c-3.1,0.7-4.9,2.4-2.3,5.9
	c2.6,3.5,1.8,9.1-0.5,10.2c-2.3,1-8.2,3-7.7,7.7c0.5,4.7-0.3,10.9-1.7,13.5c-1.4,2.6-6.4,10.9-10.7,11.4c-4.3,0.5-2.6-17-2.6-24.6
	c-0.9,0.9-13.5,5.2-13.2-5c0.3-10.2,17.8-7.8,17.8-7.8s5.7-7.8,8.1-10c-19.7,2.9-27.7-7.3-10.4-12s19.4,7.3,19.4,7.3l5.2-2.9
	l9.4-4.5c0,0,6.6-4.3,12-6.8c3.3-5.2-3.1-4.9-5.2-4.9c-2.1,0-6.1,2.3-6.6,3.5c-3.8,11.4-14.6,8.7-17.5,4.5
	c-2.9-4.2-1.4-9.5,11.1-9.5c0,0-15.2-9.2-19.9-12.5c7.6-4.5,23.2-2.3,23.2-2.3s-7.1-5.9-5.5-16.1c22.5,2.1,23.4,17.3,23,32
	c0,1.9,5.6-1.7,5.5-2.8c-1-13.3,3.6-26.9,5.9-28.9c15.8,17.8,3.6,27.2-3.8,30.7C327.8,34.4,338.8,33.8,339.4,33.3z M308.5,21
	c-5.4-0.7-16.1-0.5-16.1-0.5s9.5,8.8,11.3,9.2C305.4,30,312.5,31.8,308.5,21z M315.6,18.2c1.6,2.1,4.5,8.8,5.2,9.2
	c0-7.1-4.1-14.6-8-16.6C309.9,9.2,314.1,16.2,315.6,18.2z M332.3,15.1c-0.2,4.3-2.1,9.4-2.1,10.7C330.2,27.3,340.9,9.1,332.3,15.1z
	 M316.3,56.2c-2.4,3.3-4.8,9.4-5.2,12.5c-0.3,3.1,2.6,2.1,4.3-1.9C317.2,62.8,318.7,52.2,316.3,56.2z M281.3,79.2
	c-1.6,2.1-0.3,12.3-0.3,12.3s0.9,1.9,2.1-2.1C284.3,85.5,282.9,77.3,281.3,79.2z M284.3,47.9c-2.7-0.9-13.9,2.6-9.7,3.5
	C278.7,52.2,292.2,54.6,284.3,47.9z M285.1,64.3c-2.6,1.7-7.2,6.3-6.7,6.6c0.5,0.3,3.4-0.7,6.5-3.8C288.1,64,288.8,61.4,285.1,64.3z
	 M328.9,37.9c-1.7,1.5-2.5,1.8-2.5,2.5s3.2,1.8,4.2,2.5s2.2,2.5,2.7,2.5s0-4.5,0-4.5l-2.5-3.3L328.9,37.9z M293.9,39.2
	c-0.8-0.3-1.6-0.1-1.8,0.5c-0.2,0.6,0.2,1.3,1,1.6c0.8,0.3,1.6,0.1,1.8-0.5C295.1,40.3,294.7,39.5,293.9,39.2z M338.7,49.4
	c-0.8,0.3-1.2,1-1,1.6c0.2,0.6,1,0.8,1.8,0.5c0.8-0.3,1.2-1,1-1.6C340.3,49.3,339.5,49,338.7,49.4z"/>
<linearGradient id="SVGID_1_" gradientUnits="userSpaceOnUse" x1="268.3987" y1="73.9111" x2="342.9074" y2="4.4049">
	<stop  offset="0" style="stop-color:#509B40"/>
	<stop  offset="4.156343e-02" style="stop-color:#67A43E"/>
	<stop  offset="0.1303" style="stop-color:#8EB539"/>
	<stop  offset="0.2185" style="stop-color:#ACC533"/>
	<stop  offset="0.3049" style="stop-color:#C2D22C"/>
	<stop  offset="0.3886" style="stop-color:#D1DC26"/>
	<stop  offset="0.4667" style="stop-color:#D7DF23"/>
	<stop  offset="1" style="stop-color:#509B40"/>
</linearGradient>
<path fill="url(#SVGID_1_)" d="M338.5,31.9c0.5-0.5,4.7-2.9,6.8-3.3c2.1-0.3,9.4-4.3,10.2-5.2c0.9-0.9,3.1-4,4.5-2.6
	c5.7,5.8-7.8,7.2-9.8,8.1c-2.1,0.9-3,2.6-3,2.6s3.6,3.8,2.8,7.4c-0.9,3.6-2.9,4.3-4.3,6.1c-1.4,1.7-2.6,6.4-7.6,6.9
	c-5,0.5-4.9-0.7-6.4-1.4c-1.6-0.7-2.4,0.3-3.3,1.2c-2.1,12-12.6,22-20.8,26.2c0,0,0-10.9,1.6-15.2c4-14.4,12-17.3,12.8-19.7
	c0.9-2.4-1.4-3.8-1.4-3.8l-6.9,3.5c0,0-2.9,2.9-3.8,5c-0.9,2.1-2,8.4-6.2,7.8c-4.2-0.5-2.8-3.2-2.8-3.2s-0.7,1.9-3.8,2.6
	c-3.1,0.7-4.9,2.4-2.3,5.9c2.6,3.5,1.8,9.1-0.5,10.2c-2.3,1-8.2,3-7.7,7.7c0.5,4.7-0.3,10.9-1.7,13.5c-1.4,2.6-6.4,10.9-10.7,11.4
	c-4.3,0.5-2.6-17-2.6-24.6c-0.9,0.9-13.5,5.2-13.2-5c0.3-10.2,17.8-7.8,17.8-7.8s5.7-7.8,8.1-10c-19.7,2.9-27.7-7.3-10.4-12
	c17.3-4.7,19.4,7.3,19.4,7.3l5.2-2.9l9.4-4.5c0,0,6.6-4.3,12-6.8c3.3-5.2-3.1-4.9-5.2-4.9c-2.1,0-6.1,2.3-6.6,3.5
	c-3.8,11.4-14.6,8.7-17.5,4.5c-2.9-4.2-1.4-9.5,11.1-9.5c0,0-15.2-9.2-19.9-12.5c7.6-4.5,23.2-2.3,23.2-2.3s-7.1-5.9-5.5-16.1
	c22.5,2.1,23.4,17.3,23,32c0,1.9,5.6-1.7,5.5-2.8c-1-13.3,3.6-26.9,5.9-28.9c15.8,17.8,3.6,27.2-3.8,30.7
	C326.9,32.9,338,32.4,338.5,31.9z M307.7,19.6c-5.4-0.7-16.1-0.5-16.1-0.5s9.5,8.8,11.3,9.2C304.6,28.6,311.7,30.3,307.7,19.6z
	 M314.8,16.8c1.6,2.1,4.5,8.8,5.2,9.2c0-7.1-4.1-14.6-8-16.6C309.1,7.8,313.2,14.7,314.8,16.8z M331.4,13.7
	c-0.2,4.3-2.1,9.4-2.1,10.7C329.4,25.8,340.1,7.6,331.4,13.7z M315.5,54.7c-2.4,3.3-4.8,9.4-5.2,12.5c-0.3,3.1,2.6,2.1,4.3-1.9
	C316.4,61.3,317.9,50.8,315.5,54.7z M280.5,77.8c-1.6,2.1-0.3,12.3-0.3,12.3s0.9,1.9,2.1-2.1C283.4,84,282.1,75.9,280.5,77.8z
	 M283.4,46.4c-2.7-0.9-13.9,2.6-9.7,3.5C277.9,50.8,291.4,53.2,283.4,46.4z M284.3,62.9c-2.6,1.7-7.2,6.3-6.7,6.6
	c0.5,0.3,3.4-0.7,6.5-3.8C287.3,62.5,287.9,59.9,284.3,62.9z M328.1,36.5c-1.7,1.5-2.5,1.8-2.5,2.5c0,0.7,3.2,1.8,4.2,2.5
	c1,0.7,2.2,2.5,2.7,2.5s0-4.5,0-4.5l-2.5-3.3L328.1,36.5z M293.1,37.8c-0.8-0.3-1.6-0.1-1.8,0.5c-0.2,0.6,0.2,1.3,1,1.6
	c0.8,0.3,1.6,0.1,1.8-0.5C294.3,38.8,293.9,38.1,293.1,37.8z M337.9,47.9c-0.8,0.3-1.2,1-1,1.6c0.2,0.6,1,0.8,1.8,0.5
	c0.8-0.3,1.2-1,1-1.6C339.5,47.8,338.7,47.6,337.9,47.9z"/>
</svg>
