<?xml version="1.0" encoding="utf-8"?>
<!-- Generator: Adobe Illustrator 17.1.0, SVG Export Plug-In . SVG Version: 6.00 Build 0)  -->
<!DOCTYPE svg PUBLIC "-//W3C//DTD SVG 1.1//EN" "http://www.w3.org/Graphics/SVG/1.1/DTD/svg11.dtd">
<svg version="1.1" id="Capa_1" xmlns="http://www.w3.org/2000/svg" xmlns:xlink="http://www.w3.org/1999/xlink" x="0px" y="0px"
	 viewBox="0 0 216 146" enable-background="new 0 0 216 146" xml:space="preserve">
<path fill="#FFFFFF" d="M33.9,37.7H7.8c-2.2,0-4,0.8-5.5,2.3C0.8,41.5,0,43.4,0,45.5v5.6c0,2.2,0.8,4,2.3,5.5
	C3.8,58.2,5.6,59,7.8,59h26.1c2.2,0,4-0.8,5.5-2.3c1.5-1.5,2.3-3.4,2.3-5.5v-5.6c0-2.2-0.8-4-2.3-5.5S36.1,37.7,33.9,37.7z"/>
<path fill="#FFFFFF" d="M33.9,0H7.8c-2.2,0-4,0.8-5.5,2.3S0,5.6,0,7.8v5.6c0,2.2,0.8,4,2.3,5.5s3.4,2.3,5.5,2.3h26.1
	c2.2,0,4-0.8,5.5-2.3s2.3-3.4,2.3-5.5V7.8c0-2.2-0.8-4-2.3-5.5C37.9,0.8,36.1,0,33.9,0z"/>
<path fill="#FFFFFF" d="M33.9,75.4H7.8c-2.2,0-4,0.8-5.5,2.3C0.8,79.2,0,81.1,0,83.2v5.6c0,2.2,0.8,4,2.3,5.5
	c1.5,1.5,3.4,2.3,5.5,2.3h26.1c2.2,0,4-0.8,5.5-2.3s2.3-3.4,2.3-5.5v-5.6c0-2.2-0.8-4-2.3-5.5S36.1,75.4,33.9,75.4z"/>
<path fill="#FFFFFF" d="M138.2,37.7H60c-2.2,0-4,0.8-5.5,2.3s-2.3,3.4-2.3,5.5v5.6c0,2.2,0.8,4,2.3,5.5c1.5,1.5,3.4,2.3,5.5,2.3
	h78.2c2.2,0,4-0.8,5.5-2.3c1.5-1.5,2.3-3.4,2.3-5.5v-5.6c0-2.2-0.8-4-2.3-5.5C142.2,38.5,140.4,37.7,138.2,37.7z"/>
<path fill="#FFFFFF" d="M138.2,75.4H60c-2.2,0-4,0.8-5.5,2.3c-1.5,1.5-2.3,3.4-2.3,5.5v5.6c0,2.2,0.8,4,2.3,5.5
	c1.5,1.5,3.4,2.3,5.5,2.3h78.2c2.2,0,4-0.8,5.5-2.3c1.5-1.5,2.3-3.4,2.3-5.5v-5.6c0-2.2-0.8-4-2.3-5.5
	C142.2,76.2,140.4,75.4,138.2,75.4z"/>
<path fill="#FFFFFF" d="M143.7,2.3c-1.5-1.5-3.4-2.3-5.5-2.3H60c-2.2,0-4,0.8-5.5,2.3s-2.3,3.4-2.3,5.5v5.6c0,2.2,0.8,4,2.3,5.5
	c1.5,1.5,3.4,2.3,5.5,2.3h78.2c2.2,0,4-0.8,5.5-2.3s2.3-3.4,2.3-5.5V7.8C146,5.6,145.2,3.8,143.7,2.3z"/>
</svg>
